<svg t="1613571308320" class="icon" viewBox="0 0 1024 1024" version="1.1" xmlns="http://www.w3.org/2000/svg" p-id="4191" width="200" height="200"><path d="M720.64 619.26c-11.75 0-22.58 2.33-32.7 6.61-0.87-0.72-1.18-1.55-2.01-2.33L477.87 416.62a54.253 54.253 0 0 0-52.66-13.71l-0.41-0.41c-0.41 0.41-1.14 0.41-1.55 0.83a50.563 50.563 0 0 0-19.08 10.47c-127.86 76.85-215.59 261.96-215.59 415.24 0 21.35-3.09 31.52 0 52.2h400.81V679.25l19.91 19.96c3.45 3.41 7.07 6.14 10.93 8.57 1.8 18.99 17.24 33.8 36.3 34.8 19.05 1 35.95-12.12 39.72-30.83h0.83v-7.84c0-12.66 10.26-22.92 22.92-22.92 12.66 0 22.92 10.26 22.92 22.92v177.33h61.58V703.9c0.32-22.41-8.39-44-24.16-59.93a83.496 83.496 0 0 0-59.7-24.71zM835.3 240.74c-3.19-12.07-41.83-28.11-53.85-24.97l-7.47 2.02-36.62-41.32c-3.82-4.33-23.31-24.19-38.17-32.74-21.04-12.07-184.33 22.64-205.43 54.92-8.87 14.03-12.79 30.43-14.8 38.12l-12.85 63.55-7.47 1.9c-12.02 3.15-37.44 36.32-34.3 48.38a22.295 22.295 0 0 0 10.68 13.93 22.88 22.88 0 0 0 17.44 2.07l49.1-12.9c12.08 63.61 67.75 109.62 132.5 109.5a134.468 134.468 0 0 0 134.88-134.16c0-15.63-2.74-30.74-7.79-44.76l57.76-15.68c5.93-1.43 11.02-5.2 14.11-10.45 3.07-5.25 3.9-11.53 2.28-17.41z m-102.18-69.32l4.28 5.11c1.6 1.85 0.73 0.77-4.28-5.11z m0 0" p-id="4192"></path></svg>