<?xml version="1.0" standalone="no"?><!DOCTYPE svg PUBLIC "-//W3C//DTD SVG 1.1//EN" "http://www.w3.org/Graphics/SVG/1.1/DTD/svg11.dtd"><svg t="1577090669479" class="icon" viewBox="0 0 1024 1024" version="1.1" xmlns="http://www.w3.org/2000/svg" p-id="3889" width="32" height="32" xmlns:xlink="http://www.w3.org/1999/xlink"><defs><style type="text/css"></style></defs><path d="M981.333333 512C981.333333 512 981.333333 512 981.333333 512L42.666667 512c-12.8 0-25.6-4.266667-34.133333-17.066667C0 486.4 0 473.6 0 460.8 0 456.533333 98.133333 42.666667 512 42.666667c379.733333 0 490.666667 345.6 507.733333 409.6C1024 456.533333 1024 460.8 1024 469.333333 1024 494.933333 1006.933333 512 981.333333 512zM102.4 426.666667l823.466667 0c-38.4-98.133333-145.066667-298.666667-409.6-298.666667C247.466667 128 140.8 328.533333 102.4 426.666667z" p-id="3890"></path><path d="M426.666667 981.333333c-93.866667 0-128-76.8-128-128 0-25.6 17.066667-42.666667 42.666667-42.666667s42.666667 17.066667 42.666667 42.666667c0 21.333333 8.533333 42.666667 42.666667 42.666667s42.666667-21.333333 42.666667-42.666667l0-384c0-25.6 17.066667-42.666667 42.666667-42.666667s42.666667 17.066667 42.666667 42.666667l0 384C554.666667 904.533333 520.533333 981.333333 426.666667 981.333333z" p-id="3891"></path></svg>